<?xml version="1.0" standalone="no"?>
<!DOCTYPE svg PUBLIC "-//W3C//DTD SVG 20010904//EN"
 "http://www.w3.org/TR/2001/REC-SVG-20010904/DTD/svg10.dtd">
<svg version="1.0" xmlns="http://www.w3.org/2000/svg"
 width="1024.000000pt" height="1024.000000pt" viewBox="0 0 1024.000000 1024.000000"
 preserveAspectRatio="xMidYMid meet">
<metadata>
Created by potrace 1.14, written by Peter Selinger 2001-2017
</metadata>
<g transform="translate(0.000000,1024.000000) scale(0.100000,-0.100000)"
fill="#000000" stroke="none">
<path d="M4640 8225 c-171 -27 -341 -88 -528 -190 -216 -117 -807 -428 -1302
-685 -289 -150 -547 -288 -575 -306 -130 -85 -233 -210 -274 -331 -21 -62 -21
-65 -21 -1656 0 -1553 1 -1596 20 -1671 33 -130 91 -228 194 -331 74 -74 107
-99 176 -132 110 -54 402 -155 2047 -713 435 -148 810 -278 833 -290 163 -83
432 -78 669 14 182 70 172 64 1601 948 554 343 654 408 706 462 108 112 193
258 231 396 17 61 18 164 18 1685 l0 1620 -22 48 c-12 26 -47 74 -78 106 -90
94 -161 124 -620 256 -220 64 -900 262 -1510 440 -611 179 -1142 329 -1180
335 -95 13 -282 11 -385 -5z m375 -241 c114 -19 2732 -766 2800 -800 169 -83
165 -192 -12 -318 -159 -112 -808 -493 -1464 -859 -344 -192 -440 -232 -619
-262 -123 -19 -302 -19 -421 1 -58 10 -218 58 -422 126 -180 61 -330 108 -333
106 -2 -3 0 -513 5 -1134 6 -620 9 -1130 7 -1131 -2 -2 -210 276 -462 617
-252 341 -461 620 -466 620 -4 0 -139 -120 -301 -267 -161 -148 -304 -277
-317 -288 l-23 -20 7 1052 6 1051 -47 16 c-27 8 -158 49 -293 91 -135 42 -264
88 -287 101 -107 62 -97 146 27 233 33 23 448 233 923 465 474 233 926 455
1005 494 78 39 173 81 210 92 123 39 292 44 477 14z m3114 -1298 c37 -20 58
-53 76 -123 13 -49 15 -239 15 -1383 0 -841 -4 -1349 -10 -1390 -6 -39 -27
-98 -50 -147 -68 -139 -112 -175 -530 -435 -867 -538 -1420 -870 -1558 -936
-74 -35 -149 -50 -196 -38 -39 10 -97 66 -120 116 -20 43 -21 64 -24 460 -1
228 2 843 7 1365 9 1035 5 972 68 1101 30 63 130 176 190 216 21 14 76 47 123
75 47 27 482 289 968 581 485 292 897 536 915 541 48 14 95 13 126 -3z"/>
</g>
</svg>
